<svg
    viewBox="0 0 200 200"
    xmlns="http://www.w3.org/2000/svg"
    fill="none"
    stroke="black"
    stroke-width="4"
    stroke-linecap="round"
    stroke-linejoin="round"
>
    <!-- Dog Head -->
    <path d="M50 80 Q 40 40, 80 30 Q 100 20, 120 30 Q 160 40, 150 80" fill="#f4a261" stroke="none"/>
    
    <!-- Cat Head -->
    <path d="M150 80 Q 160 40, 120 30 Q 100 20, 80 30 Q 40 40, 50 80" fill="#264653" stroke="none"/>
    
    <!-- Cat Ears -->
    <path d="M70 30 L60 10 L90 20 Z" fill="#264653" stroke="none"/>
    <path d="M130 30 L140 10 L110 20 Z" fill="#264653" stroke="none"/>
    
    <!-- Dog Ear -->
    <path d="M50 50 Q 20 60, 40 90" fill="#e76f51" stroke="none"/>
    
    <!-- Eyes -->
    <circle cx="80" cy="60" r="4" fill="white"/>
    <circle cx="120" cy="60" r="4" fill="white"/>
    
    <!-- Nose -->
    <circle cx="100" cy="85" r="6" fill="black"/>
    
    <!-- Mouth -->
    <path d="M90 95 Q 100 110, 110 95" stroke="black" fill="none"/>
    
    <!-- Text -->
    <text x="50" y="160" font-family="Arial" font-size="30" font-weight="bold" fill="black">Cat'Woof</text>
</svg>
